<svg width="6" height="11" viewBox="0 0 6 11" fill="none" xmlns="http://www.w3.org/2000/svg">
<path d="M5.34435 4.503L1.53645 0.29366C1.45296 0.200609 1.35363 0.126752 1.24419 0.0763506C1.13475 0.025949 1.01736 0 0.898802 0C0.780243 0 0.662858 0.025949 0.553417 0.0763506C0.443977 0.126752 0.344647 0.200609 0.261158 0.29366C0.0938877 0.479667 0 0.731287 0 0.993562C0 1.25584 0.0938877 1.50746 0.261158 1.69346L3.4404 5.20787L0.261158 8.72227C0.0938877 8.90828 0 9.1599 0 9.42218C0 9.68445 0.0938877 9.93607 0.261158 10.1221C0.345075 10.2141 0.444598 10.2869 0.554019 10.3363C0.66344 10.3857 0.780607 10.4107 0.898802 10.41C1.017 10.4107 1.13416 10.3857 1.24358 10.3363C1.35301 10.2869 1.45253 10.2141 1.53645 10.1221L5.34435 5.91274C5.42852 5.82045 5.49534 5.71064 5.54093 5.58967C5.58653 5.46869 5.61 5.33893 5.61 5.20787C5.61 5.07681 5.58653 4.94705 5.54093 4.82607C5.49534 4.7051 5.42852 4.59529 5.34435 4.503Z" fill="#46A6EC"/>
</svg>
