<svg width="31" height="30" viewBox="0 0 31 30" fill="none" xmlns="http://www.w3.org/2000/svg">
<path d="M14.9054 1.8579L14.9073 1.86039L14.9054 1.86183V19.0492L14.9062 19.0502L14.9054 19.0508V19.0513H14.9048L8.13476 24.1665L13.0475 27.8784L13.0473 27.8786V30H0V18.3443L4.42954 14.9975V7.97251H4.42958L4.42954 7.97247L14.0274 0.720566L14.0278 0.721178L14.9054 0.00430048V1.8579ZM16.9728 0.718811L26.5704 7.97053V7.97057V14.9955L31 18.3424V29.998H17.9527V27.8767L17.9525 27.8765L22.8653 24.1645L16.0954 19.0494H16.0946V19.0489L16.0938 19.0483L16.0946 19.0472V8.88488L16.0897 8.88116L16.0946 8.87478V8.18718H16.0948V7.02666L16.9695 7.74137V7.74135L25.1207 13.9001V8.67984L16.0958 1.8608H16.0932V1.85883L16.0927 1.85846L16.0932 1.85777V1.16632H16.093V0L16.9728 0.718811ZM2.31244 28.5658H11.5686L6.94053 25.0689L2.31244 28.5658ZM19.4314 28.5638H28.6876L24.0596 25.0669L19.4314 28.5638ZM15.1709 26.1619C15.2836 26.1619 15.375 26.2522 15.375 26.3639V27.3133C15.375 27.4249 15.2836 27.5154 15.1709 27.5154H14.252C14.1393 27.5154 14.0478 27.4249 14.0478 27.3133V26.3639C14.0478 26.2522 14.1393 26.1619 14.252 26.1619H15.1709ZM16.8043 26.1619C16.917 26.1619 17.0085 26.2522 17.0085 26.3639V27.3133C17.0085 27.4249 16.917 27.5154 16.8043 27.5154H15.8855C15.7728 27.5154 15.6813 27.4249 15.6813 27.3133V26.3639C15.6813 26.2522 15.7728 26.1619 15.8855 26.1619H16.8043ZM1.4497 27.4129L5.7463 24.1665L1.4497 20.9201V27.4129ZM25.2537 24.1645L29.5503 27.4109V20.9181L25.2537 24.1645ZM15.1709 24.5661C15.2836 24.5661 15.375 24.6564 15.375 24.7681V25.7175C15.375 25.829 15.2836 25.9195 15.1709 25.9195H14.252C14.1393 25.9195 14.0478 25.829 14.0478 25.7175V24.7681C14.0478 24.6564 14.1393 24.5661 14.252 24.5661H15.1709ZM16.8043 24.5661C16.917 24.5661 17.0085 24.6564 17.0085 24.7681V25.7175C17.0085 25.829 16.917 25.9195 16.8043 25.9195H15.8855C15.7728 25.9195 15.6813 25.829 15.6813 25.7175V24.7681C15.6813 24.6564 15.7728 24.5661 15.8855 24.5661H16.8043ZM20.7865 23.9585H20.7863L21.0681 24.2041L19.9069 25.0982L20.343 24.5328L19.9065 25.0982L15.5363 21.7962L11.1768 25.0903L11.183 25.0984L11.1746 25.0919L11.1661 25.0982L11.1414 25.0663L10.0218 24.2041L10.2933 23.9676L10.2862 23.9585L15.518 20.0055L15.5314 19.9879L20.7865 23.9585ZM5.87925 15.7068V21.0724L4.43279 19.8907H4.42954V16.8021L1.4497 19.0536V19.1154L6.94053 23.2642L10.5785 20.5155V12.1561L5.87925 15.7068ZM20.4214 20.5135L24.0596 23.2622L29.5503 19.1135V19.0517L26.5704 16.8002V19.8888H26.5672L25.1207 21.0704V15.7048L20.4214 12.1542V20.5135ZM5.87925 8.68176V13.9021L11.148 9.92114L11.1481 9.92118L12.0279 9.20245V10.3646H12.028V19.4202L13.517 18.2952V2.91092L5.87925 8.68176ZM17.483 18.2932L18.9721 19.4183V11.059L17.483 9.93396V18.2932Z" fill="#D7E1E6"/>
</svg>
