<svg width="173" height="30" viewBox="0 0 173 30" fill="none" xmlns="http://www.w3.org/2000/svg">
<path d="M14.9054 1.8579L14.9073 1.86039L14.9054 1.86183V19.0492L14.9062 19.0502L14.9054 19.0508V19.0513H14.9048L8.13476 24.1665L13.0475 27.8784L13.0473 27.8786V30H0V18.3443L4.42954 14.9975V7.97251H4.42958L4.42954 7.97247L14.0274 0.720566L14.0278 0.721178L14.9054 0.00430048V1.8579ZM16.9728 0.718811L26.5704 7.97053V7.97057V14.9955L31 18.3424V29.998H17.9527V27.8767L17.9525 27.8765L22.8653 24.1645L16.0954 19.0494H16.0946V19.0489L16.0938 19.0483L16.0946 19.0472V8.88488L16.0897 8.88116L16.0946 8.87478V8.18718H16.0948V7.02666L16.9695 7.74137V7.74135L25.1207 13.9001V8.67984L16.0958 1.8608H16.0932V1.85883L16.0927 1.85846L16.0932 1.85777V1.16632H16.093V0L16.9728 0.718811ZM2.31244 28.5658H11.5686L6.94053 25.0689L2.31244 28.5658ZM19.4314 28.5638H28.6876L24.0596 25.0669L19.4314 28.5638ZM15.1709 26.1619C15.2836 26.1619 15.375 26.2522 15.375 26.3639V27.3133C15.375 27.4249 15.2836 27.5154 15.1709 27.5154H14.252C14.1393 27.5154 14.0478 27.4249 14.0478 27.3133V26.3639C14.0478 26.2522 14.1393 26.1619 14.252 26.1619H15.1709ZM16.8043 26.1619C16.917 26.1619 17.0085 26.2522 17.0085 26.3639V27.3133C17.0085 27.4249 16.917 27.5154 16.8043 27.5154H15.8855C15.7728 27.5154 15.6813 27.4249 15.6813 27.3133V26.3639C15.6813 26.2522 15.7728 26.1619 15.8855 26.1619H16.8043ZM1.4497 27.4129L5.7463 24.1665L1.4497 20.9201V27.4129ZM25.2537 24.1645L29.5503 27.4109V20.9181L25.2537 24.1645ZM15.1709 24.5661C15.2836 24.5661 15.375 24.6564 15.375 24.7681V25.7175C15.375 25.829 15.2836 25.9195 15.1709 25.9195H14.252C14.1393 25.9195 14.0478 25.829 14.0478 25.7175V24.7681C14.0478 24.6564 14.1393 24.5661 14.252 24.5661H15.1709ZM16.8043 24.5661C16.917 24.5661 17.0085 24.6564 17.0085 24.7681V25.7175C17.0085 25.829 16.917 25.9195 16.8043 25.9195H15.8855C15.7728 25.9195 15.6813 25.829 15.6813 25.7175V24.7681C15.6813 24.6564 15.7728 24.5661 15.8855 24.5661H16.8043ZM20.7865 23.9585H20.7863L21.0681 24.2041L19.9069 25.0982L20.343 24.5328L19.9065 25.0982L15.5363 21.7962L11.1768 25.0903L11.183 25.0984L11.1746 25.0919L11.1661 25.0982L11.1414 25.0663L10.0218 24.2041L10.2933 23.9676L10.2862 23.9585L15.518 20.0055L15.5314 19.9879L20.7865 23.9585ZM5.87925 15.7068V21.0724L4.43279 19.8907H4.42954V16.8021L1.4497 19.0536V19.1154L6.94053 23.2642L10.5785 20.5155V12.1561L5.87925 15.7068ZM20.4214 20.5135L24.0596 23.2622L29.5503 19.1135V19.0517L26.5704 16.8002V19.8888H26.5672L25.1207 21.0704V15.7048L20.4214 12.1542V20.5135ZM5.87925 8.68176V13.9021L11.148 9.92114L11.1481 9.92118L12.0279 9.20245V10.3646H12.028V19.4202L13.517 18.2952V2.91092L5.87925 8.68176ZM17.483 18.2932L18.9721 19.4183V11.059L17.483 9.93396V18.2932Z" fill="#396B80"/>
<path d="M41.9231 6H49.9918V7.62938H43.8293V10.7787H49.2852V12.4235H43.8293V15.4629H49.9918V17.0769H41.9231V6ZM53.1997 6H55.0895V15.4629H61.137V17.0769H53.1997V6ZM64.2036 6H66.0934V15.4629H72.1408V17.0769H64.2036V6ZM83.3341 17.0769L82.4796 14.8362H77.2045L76.3335 17.0769H74.263L78.6671 6H81.0334L85.4211 17.0769H83.3341ZM81.888 13.2069L79.8502 7.78605L77.7961 13.2069H81.888ZM88.0086 6H92.2155C93.1357 6 93.9465 6.13103 94.6476 6.39196C95.3597 6.64264 95.9513 7.00839 96.4224 7.48866C96.9044 7.95867 97.266 8.53807 97.507 9.22742C97.748 9.91678 97.8685 10.6899 97.8685 11.5462C97.8685 12.4133 97.748 13.1864 97.507 13.8649C97.266 14.544 96.9099 15.124 96.4388 15.6042C95.9787 16.0845 95.398 16.4502 94.6969 16.7009C94.0067 16.9516 93.2015 17.0769 92.2812 17.0769H88.0086V6ZM89.9148 7.62938V15.4629H92.2319C92.8673 15.4629 93.4151 15.3689 93.8752 15.1809C94.3354 14.9929 94.7133 14.732 95.0091 14.3976C95.3158 14.0529 95.5405 13.6404 95.6829 13.1602C95.8363 12.6799 95.9129 12.1415 95.9129 11.5462C95.9129 10.3139 95.5952 9.35276 94.9598 8.66341C94.3354 7.97405 93.4206 7.62938 92.2155 7.62938H89.9148ZM108.567 17.0769L107.713 14.8362H102.438L101.567 17.0769H99.4963L103.9 6H106.267L110.654 17.0769H108.567ZM107.121 13.2069L105.083 7.78605L103.029 13.2069H107.121ZM118.821 6H123.077C123.746 6 124.343 6.0735 124.869 6.21934C125.405 6.35551 125.86 6.57484 126.233 6.87736C126.616 7.18045 126.907 7.57241 127.104 8.05268C127.312 8.52269 127.416 9.09183 127.416 9.7601C127.416 10.3765 127.306 10.9252 127.087 11.4054C126.879 11.8857 126.578 12.2879 126.184 12.6115C125.8 12.9357 125.34 13.1812 124.803 13.3482C124.267 13.5151 123.669 13.5988 123.012 13.5988H120.728V17.0769H118.821V6ZM122.913 12.0008C123.647 12.0008 124.255 11.8282 124.737 11.4835C125.23 11.1286 125.488 10.5805 125.509 9.83872C125.509 9.05537 125.296 8.49136 124.869 8.14668C124.452 7.802 123.839 7.62938 123.028 7.62938H120.728V12.0008H122.913ZM132.55 13.0189V17.0769H130.644V6H135.163C135.766 6 136.33 6.05754 136.856 6.17262C137.381 6.28771 137.836 6.48084 138.219 6.75202C138.614 7.02378 138.921 7.3844 139.139 7.83334C139.37 8.28227 139.485 8.83603 139.485 9.49405C139.485 9.94299 139.414 10.3555 139.271 10.7315C139.139 11.0972 138.959 11.4208 138.729 11.7028C138.499 11.9746 138.231 12.2042 137.923 12.3922C137.617 12.5699 137.288 12.7004 136.937 12.7841L139.452 17.0769H137.332C136.949 16.3978 136.56 15.7244 136.165 15.0556C135.782 14.3771 135.393 13.698 134.998 13.0189H132.55ZM134.9 11.4368C135.273 11.4368 135.623 11.4054 135.951 11.3428C136.28 11.2801 136.565 11.1758 136.806 11.0294C137.047 10.883 137.233 10.6848 137.365 10.4341C137.507 10.1731 137.579 9.84385 137.579 9.44676C137.579 9.09183 137.518 8.79957 137.398 8.56941C137.288 8.33982 137.124 8.15694 136.905 8.02135C136.686 7.87493 136.423 7.77579 136.116 7.72338C135.809 7.66071 135.47 7.62938 135.097 7.62938H132.55V11.4368H134.9ZM144.677 17.0769H142.771V6H144.677V17.0769ZM148.527 17.0769V6H150.927L154.394 11.6715L157.828 6H160.162V17.0769H158.272V8.44464L154.772 14.1942H153.917L150.417 8.44464V17.0769H148.527ZM164.008 6H172.077V7.62938H165.914V10.7787H171.37V12.4235H165.914V15.4629H172.077V17.0769H164.008V6Z" fill="black"/>
<path d="M96.8563 27.1081C96.8563 27.373 96.8849 27.6232 96.9421 27.8582C96.9992 28.0932 97.0944 28.301 97.2277 28.4818C97.3609 28.6563 97.5354 28.7981 97.7512 28.9065C97.967 29.0087 98.2368 29.0601 98.5604 29.0601C98.8778 29.0601 99.1443 29.0087 99.3601 28.9065C99.5759 28.7981 99.7473 28.6535 99.8742 28.4727C100.007 28.292 100.099 28.0841 100.15 27.8492C100.207 27.6142 100.236 27.3674 100.236 27.1081V23.5385H101.34V27.072C101.34 27.4995 101.286 27.8944 101.178 28.2558C101.077 28.6111 100.915 28.9184 100.693 29.1776C100.471 29.4369 100.182 29.6385 99.8265 29.7831C99.4775 29.9277 99.0523 30 98.5509 30C98.0495 30 97.6211 29.9277 97.2657 29.7831C96.9167 29.6385 96.6279 29.4397 96.3994 29.1867C96.1773 28.9274 96.0123 28.6201 95.9043 28.2649C95.8028 27.9034 95.7521 27.5058 95.7521 27.072V23.5385H96.8563V27.1081ZM87.7117 23.5385C88.2448 23.5385 88.7144 23.6136 89.1206 23.7644C89.5332 23.909 89.8759 24.1197 90.1488 24.397C90.428 24.6681 90.6375 25.0025 90.7771 25.4001C90.9167 25.7977 90.9865 26.2434 90.9865 26.7376C90.9865 27.2375 90.9167 27.6837 90.7771 28.0751C90.6375 28.4665 90.4312 28.8009 90.1583 29.0782C89.8918 29.3555 89.5554 29.5662 89.1492 29.7108C88.7494 29.8554 88.2829 29.9277 87.7498 29.9277H85.2746V23.5385H87.7117ZM109.139 23.5385C109.393 23.5385 109.65 23.5594 109.91 23.6017C110.17 23.6441 110.405 23.7254 110.615 23.8457C110.824 23.9604 110.992 24.123 111.119 24.3337C111.253 24.5388 111.319 24.8065 111.319 25.138C111.319 25.4453 111.253 25.7192 111.119 25.9604C110.986 26.2016 110.767 26.3914 110.462 26.5297C110.894 26.6263 111.198 26.8071 111.376 27.072C111.56 27.3312 111.652 27.6503 111.652 28.0299C111.652 28.4095 111.567 28.7258 111.395 28.9788C111.23 29.2318 111.018 29.4278 110.758 29.5662C110.497 29.7046 110.205 29.8012 109.882 29.8554C109.564 29.9034 109.25 29.9277 108.939 29.9277H106.464V23.5385H109.139ZM122.199 29.9277H120.991L120.496 28.6354H117.439L116.935 29.9277H115.736L118.287 23.5385H119.658L122.199 29.9277ZM127.754 29.9277H126.65V23.5385H127.754V29.9277ZM86.3789 28.9969H87.7212C88.0893 28.9969 88.4067 28.9427 88.6732 28.8342C88.9398 28.7258 89.1587 28.575 89.3301 28.3824C89.5078 28.1835 89.6379 27.9457 89.7204 27.6684C89.8092 27.3911 89.8537 27.081 89.8537 26.7376C89.8537 26.0265 89.6696 25.4724 89.3015 25.0748C88.9398 24.6771 88.4098 24.4783 87.7117 24.4783H86.3789V28.9969ZM107.987 27.1443H107.568V28.9969H108.92C109.098 28.9969 109.282 28.9878 109.472 28.9698C109.663 28.9517 109.837 28.9093 109.996 28.8432C110.154 28.7772 110.285 28.6806 110.386 28.5541C110.494 28.4213 110.548 28.244 110.548 28.0209C110.548 27.8401 110.506 27.6927 110.424 27.5781C110.348 27.4577 110.246 27.3674 110.12 27.3069C109.992 27.2409 109.85 27.1957 109.691 27.1714C109.539 27.1471 109.383 27.1352 109.225 27.1352H108.806L107.987 27.1443ZM79.139 27.9508L41 27.2166L79.139 26.4823V27.9508ZM172.077 27.2166L133.938 27.9508V26.4823L172.077 27.2166ZM117.782 27.6955H120.153L118.972 24.5687L117.782 27.6955ZM107.568 26.2315H108.825C108.983 26.2315 109.149 26.2225 109.32 26.2044C109.491 26.1801 109.644 26.1383 109.777 26.0779C109.916 26.0118 110.03 25.918 110.12 25.7977C110.208 25.6774 110.253 25.5148 110.253 25.3097C110.253 25.1228 110.218 24.9754 110.148 24.8669C110.078 24.7523 109.986 24.6681 109.872 24.6139C109.758 24.5534 109.625 24.5173 109.472 24.5054C109.326 24.4874 109.174 24.4783 109.015 24.4783H107.568V26.2315Z" fill="#396B80"/>
</svg>
