<svg width="9" height="9" viewBox="0 0 9 9" fill="none" xmlns="http://www.w3.org/2000/svg">
<g clip-path="url(#clip0_1_36)">
<path d="M8.25 4.5C8.25 4.00755 8.15299 3.51993 7.96455 3.06491C7.77608 2.60998 7.49989 2.19653 7.15166 1.84836C6.80344 1.50009 6.39004 1.22388 5.93505 1.03546C5.4801 0.846952 4.99245 0.75 4.5 0.75V1.5C4.89398 1.5 5.28409 1.57764 5.64806 1.72833C6.01204 1.87912 6.34275 2.10013 6.62134 2.37872C6.89989 2.65723 7.12088 2.98801 7.27163 3.35193C7.42241 3.71594 7.5 4.10606 7.5 4.5H8.25Z" fill="black" fill-opacity="0.2"/>
<path d="M0.75 3.75V1.875C0.75 1.66791 0.917895 1.5 1.125 1.5H3C3.2071 1.5 3.375 1.66791 3.375 1.875V3.375C3.375 3.58209 3.2071 3.75 3 3.75H2.25C2.25 5.40683 3.59315 6.75 5.25 6.75V6C5.25 5.79292 5.41789 5.625 5.625 5.625H7.125C7.33211 5.625 7.5 5.79292 7.5 6V7.875C7.5 8.08208 7.33211 8.25 7.125 8.25H5.25C2.76472 8.25 0.75 6.23527 0.75 3.75Z" fill="black" fill-opacity="0.2"/>
<path d="M6.57874 3.63895C6.6918 3.91196 6.75 4.20457 6.75 4.5H6.075C6.075 4.29319 6.03427 4.08836 5.95511 3.8973C5.87595 3.70615 5.75996 3.53256 5.61367 3.38635C5.46742 3.24005 5.29384 3.12405 5.10274 3.04486C4.91164 2.96576 4.70681 2.92502 4.5 2.92502V2.25C4.79546 2.25 5.08804 2.30823 5.36104 2.4213C5.634 2.53436 5.88206 2.70007 6.09097 2.90899C6.29992 3.11792 6.46568 3.36594 6.57874 3.63895Z" fill="black" fill-opacity="0.2"/>
</g>
<defs>
<clipPath id="clip0_1_36">
<rect width="9" height="9" fill="white"/>
</clipPath>
</defs>
</svg>
