<svg width="16" height="16" viewBox="0 0 16 16" fill="none" xmlns="http://www.w3.org/2000/svg">
<path d="M15 10.0143C15.7188 10.3268 16.125 11.108 15.9062 11.8893L15.25 14.733C15.125 15.483 14.4688 15.983 13.6875 15.983C6.125 15.983 0 9.85808 0 2.29558C0 1.51433 0.5 0.858082 1.25 0.701832L4.09375 0.0455823C4.875 -0.141918 5.65625 0.264332 5.96875 0.983082L7.3125 4.10808C7.59375 4.76433 7.375 5.54558 6.84375 6.01433L5.78125 6.85808C6.59375 8.23308 7.75 9.38933 9.15625 10.2018L10 9.17058C10.4688 8.60808 11.25 8.38933 11.9375 8.70183L15 10.0143ZM14.4688 11.5455C14.5 11.483 14.4688 11.4205 14.4062 11.358L11.3438 10.0455C11.2812 10.0143 11.2188 10.0455 11.1875 10.0768L9.9375 11.608C9.71875 11.8893 9.3125 11.9518 9 11.7955C6.90625 10.7643 5.1875 9.04558 4.15625 6.95183C4 6.63933 4.09375 6.26433 4.34375 6.04558L5.875 4.79558C5.9375 4.76433 5.9375 4.70183 5.90625 4.63933L4.59375 1.57683C4.5625 1.54558 4.53125 1.48308 4.46875 1.48308L4.4375 1.51433L1.59375 2.17058C1.53125 2.17058 1.46875 2.23308 1.46875 2.29558C1.46875 9.01433 6.96875 14.483 13.6875 14.483C13.75 14.483 13.8125 14.4205 13.8125 14.3893L14.4688 11.5455Z" fill="#B0C4CC"/>
</svg>
