<svg width="40" height="40" viewBox="0 0 40 40" fill="none" xmlns="http://www.w3.org/2000/svg">
<g clip-path="url(#clip0_52_5)">
<path d="M33.7778 19.5556C31.7778 17.4444 29.1111 16 26.3333 15.4444C25.1111 15.1111 23.8889 14.8889 22.6667 14.7778C25.7778 11.1111 25.2222 5.55556 21.5556 2.44445C17.8889 -0.666662 12.3333 -0.111107 9.22223 3.55556C6.11112 7.22223 6.66668 12.7778 10.3333 15.8889C11 16.4444 11.6667 16.8889 12.3333 17.1111V19.5556L10.5556 17.8889C9.00001 16.3333 6.44445 16.3333 4.77779 17.8889C3.22223 19.4444 3.11112 21.8889 4.66667 23.4444L9.77779 29.4444C10 31 10.5556 32.4444 11.3333 33.7778C11.8889 34.7778 12.6667 35.7778 13.4445 36.5556V38.6667C13.4445 39.3333 13.8889 39.7778 14.5556 39.7778H29.6667C30.2222 39.7778 30.7778 39.2222 30.7778 38.6667V35.7778C32.8889 33.2222 34 30 34 26.7778V20.3333C34.1111 19.8889 34 19.6667 33.7778 19.5556ZM9.33334 9.11111C9.33334 5.44445 12.3333 2.55556 16 2.66667C19.6667 2.66667 22.5556 5.66667 22.4445 9.33334C22.4445 11.3333 21.5556 13.1111 20 14.3333V8.77778C19.8889 6.77778 18.2222 5.22223 16.2222 5.22223C14.2222 5.11111 12.4445 6.77778 12.4445 8.77778V14.5556C10.5556 13.4444 9.44445 11.3333 9.33334 9.11111ZM31.8889 26.6667C32 29.5556 31 32.3333 29.1111 34.5556C28.8889 34.7778 28.6667 35 28.6667 35.3333V37.6667H15.7778V36.1111C15.7778 35.7778 15.5556 35.4445 15.3333 35.2222C14.5556 34.5556 13.8889 33.7778 13.3333 32.7778C12.6667 31.6667 12.2222 30.3333 12 29C12 28.7778 11.8889 28.5556 11.7778 28.3333L6.44445 22C6.11112 21.6667 5.8889 21.2222 5.8889 20.6667C5.8889 20.2222 6.11112 19.6667 6.44445 19.3333C7.22223 18.6667 8.33334 18.6667 9.11112 19.3333L12.3333 22.5556V25.8889L14.4445 24.7778V8.77778C14.5556 8 15.2222 7.33334 16.1111 7.44445C16.8889 7.44445 17.6667 8 17.6667 8.77778V21.5556L19.8889 22V16.8889C20 16.7778 20.1111 16.7778 20.2222 16.6667C21 16.6667 21.7778 16.7778 22.5556 16.8889V22.5556L24.3333 22.8889V17.1111L25.6667 17.4444C26.2222 17.5556 26.7778 17.7778 27.3333 18V23.5556L29.1111 23.8889V18.7778C30.1111 19.2222 31 19.8889 31.7778 20.6667L31.8889 26.6667Z" fill="#396B80"/>
</g>
<defs>
<clipPath id="clip0_52_5">
<rect width="40" height="40" fill="white"/>
</clipPath>
</defs>
</svg>
