<svg width="50" height="50" viewBox="0 0 50 50" fill="none" xmlns="http://www.w3.org/2000/svg">
<path d="M39.475 23.1501C38.5646 15.9793 32.4229 10.4167 25.0083 10.4167C19.2666 10.4167 14.2792 13.773 12.0021 19.0626C7.52707 20.4001 4.17499 24.6251 4.17499 29.1668C4.17499 34.9105 8.8479 39.5834 14.5917 39.5834H16.675V35.4168H14.5917C11.1458 35.4168 8.34165 32.6126 8.34165 29.1668C8.34165 26.2418 10.8396 23.423 13.9104 22.8834L15.1208 22.6709L15.5208 21.5084C16.9854 17.2355 20.6208 14.5834 25.0083 14.5834C30.7521 14.5834 35.425 19.2563 35.425 25.0001V27.0834H37.5083C39.8062 27.0834 41.675 28.9522 41.675 31.2501C41.675 33.548 39.8062 35.4168 37.5083 35.4168H33.3416V39.5834H37.5083C42.1041 39.5834 45.8416 35.8459 45.8416 31.2501C45.8392 29.3824 45.2106 27.5695 44.0565 26.1011C42.9023 24.6327 41.2892 23.5937 39.475 23.1501Z" fill="#396B80" fill-opacity="0.3"/>
<path d="M27.0917 29.1666V20.8333H22.925V29.1666H16.675L25.0083 39.5833L33.3417 29.1666H27.0917Z" fill="#396B80" fill-opacity="0.3"/>
</svg>
