<svg width="60" height="54" viewBox="0 0 60 54" fill="none" xmlns="http://www.w3.org/2000/svg">
<g clip-path="url(#clip0_52_37)">
<path d="M5.57142 44.7274C5.57142 46.3927 6.73215 47.5822 8.35715 47.5822H56.6429C58.1518 47.5822 59.4286 48.8908 59.4286 50.4373C59.4286 52.1026 58.1518 53.2921 56.6429 53.2921H8.35715C3.71429 53.2921 0 49.4855 0 44.7274V2.85493C0 1.30851 1.16071 0 2.78571 0C4.29465 0 5.57142 1.30851 5.57142 2.85493V44.7274ZM39.9285 11.4197H52.9285C54.4376 11.4197 55.7142 12.7283 55.7142 14.2747V27.5977C55.7142 29.2632 54.4376 30.4527 52.9285 30.4527C51.3036 30.4527 50.1428 29.2632 50.1428 27.5977V21.1741L37.1429 34.3782C36.0981 35.5678 34.3572 35.5678 33.3124 34.3782L24.0269 24.9806L16.7143 32.475C15.6696 33.6645 13.9286 33.6645 12.8839 32.475C11.7232 31.4044 11.7232 29.6199 12.8839 28.4303L22.1697 18.914C23.2142 17.8433 24.9554 17.8433 25.9999 18.914L35.2857 28.4303L46.1963 17.1296H39.9285C38.3036 17.1296 37.1429 15.9401 37.1429 14.2747C37.1429 12.7283 38.3036 11.4197 39.9285 11.4197Z" fill="url(#paint0_linear_52_37)"/>
</g>
<defs>
<linearGradient id="paint0_linear_52_37" x1="59" y1="50.2176" x2="-34.2303" y2="-63.8716" gradientUnits="userSpaceOnUse">
<stop stop-color="#46A6EC"/>
<stop offset="1" stop-color="white"/>
</linearGradient>
<clipPath id="clip0_52_37">
<rect width="60" height="54" fill="white"/>
</clipPath>
</defs>
</svg>
